<?xml version="1.0" standalone="no"?>
<!DOCTYPE svg PUBLIC "-//W3C//DTD SVG 20010904//EN"
 "http://www.w3.org/TR/2001/REC-SVG-20010904/DTD/svg10.dtd">
<svg version="1.0" xmlns="http://www.w3.org/2000/svg"
 width="645.000000pt" height="387.000000pt" viewBox="0 0 645.000000 387.000000"
 preserveAspectRatio="xMidYMid meet">

<g transform="translate(0.000000,387.000000) scale(0.100000,-0.100000)"
fill="#000000" stroke="none">
<path d="M2642 2915 c-167 -36 -325 -159 -395 -305 -62 -131 -72 -182 -72
-390 0 -206 14 -279 78 -410 65 -132 213 -242 372 -275 89 -19 144 -19 224 0
135 32 233 111 300 241 22 43 40 77 41 74 0 -3 -20 -66 -45 -140 -34 -103 -45
-149 -45 -197 0 -76 -22 -125 -76 -173 -90 -79 -189 -100 -471 -100 l-213 0 0
-149 0 -149 183 -4 c314 -8 467 14 607 88 122 64 209 161 249 277 10 28 49
113 87 187 l69 135 3 -182 2 -183 160 0 159 0 3 464 c3 454 3 465 24 493 44
59 75 68 240 71 l152 4 6 36 c8 48 8 144 0 221 l-7 61 -191 0 c-210 0 -276
-11 -355 -57 -100 -58 -170 -150 -185 -243 -5 -35 -5 -34 66 40 39 41 63 63
55 48 -69 -115 -111 -190 -165 -300 -35 -71 -67 -128 -72 -128 -5 0 -9 88 -9
194 0 107 -5 223 -11 258 -54 338 -255 510 -594 507 -61 0 -139 -7 -174 -14z
m274 -310 c111 -33 168 -119 187 -282 20 -174 -17 -339 -96 -421 -59 -61 -100
-77 -207 -77 -78 0 -102 4 -135 22 -101 54 -151 150 -170 323 -6 65 9 196 31
262 26 78 104 154 184 179 43 13 154 10 206 -6z"/>
</g>
</svg>
